<?xml version="1.0" encoding="utf-8"?>
<!-- Generator: Adobe Illustrator 25.4.1, SVG Export Plug-In . SVG Version: 6.00 Build 0)  -->
<svg version="1.0" id="레이어_1" xmlns="http://www.w3.org/2000/svg" xmlns:xlink="http://www.w3.org/1999/xlink" x="0px"
	 y="0px" viewBox="0 0 283.5 75.3" enable-background="new 0 0 283.5 75.3" xml:space="preserve">
<g>
	<path fill="#FFFFFF" d="M187.9,41.2c1.7-4.2,2-8.1,0.9-11.1h2.1c0,0,2.5,0,3.5-2.5c1-2.4-1.3-2.3-1.3-2.3s-4.4,0-5.9,0
		c-1.6,0-3.8-0.7-3.8-0.7l0,0c-1.1-0.4-2.3-0.6-3.6-0.6c-8.4,0-18.4,7.6-22.3,17.1c-2.6,6.3-1.8,11.8,1.4,14.7
		c1.6,1.5,3.9,2.4,6.7,2.4c0.2,0,0.4,0,0.6,0c0.5-0.1,0.9-0.1,1.4-0.1c0.1,0,0.1,0,0.2,0c3.9,0,6.1,2.4,4.9,5.4
		c-1.2,3-5.4,5.4-9.3,5.4c-3.9,0-5.6-1.6-5.5-3.4c0.1-1.2,1.8-1.4,1.8-2.9c0-1-1.6-1.1-3.4-1.1c-1.6,0-5.8,0.9-7.4,4.8c0,0,0,0,0,0
		c-1.9,4.6,3,9,11.8,9c8.8,0,18-4.9,20.4-10.9c1.8-4.3-0.3-7.9-4.8-9.7C181.2,51.6,185.6,46.7,187.9,41.2z M178.4,41.2
		c-2.5,6.1-6.6,11.3-9.7,12.5c-0.4,0.2-0.9,0.3-1.3,0.3c-0.2,0-0.5,0-0.7-0.1c-2.5-0.8-2.4-6.1,0.2-12.6c2.9-7,7.8-12.7,11-12.7
		C181.1,28.5,181.3,34.2,178.4,41.2z"/>
	<path fill="#FFFFFF" d="M142,54.8c4.9-3.1,9.3-8,11.6-13.6c1.7-4.2,2-8.1,0.9-11.1h2.1c0,0,2.5,0,3.5-2.5c1-2.4-1.3-2.3-1.3-2.3
		s-4.4,0-5.9,0c-1.6,0-3.8-0.7-3.8-0.7l0,0c-1.1-0.4-2.3-0.6-3.6-0.6c-8.4,0-18.4,7.6-22.3,17.1c-2.6,6.3-1.8,11.8,1.4,14.7
		c1.6,1.5,3.9,2.4,6.7,2.4c0.2,0,0.4,0,0.6,0c0.5-0.1,0.9-0.1,1.4-0.1c0.1,0,0.1,0,0.2,0c3.9,0,6.1,2.4,4.9,5.4
		c-1.2,3-5.4,5.4-9.3,5.4c-3.9,0-5.6-1.6-5.5-3.4c0.1-1.2,1.8-1.4,1.8-2.9c0-1-1.6-1.1-3.4-1.1c-1.6,0-5.8,0.9-7.4,4.8c0,0,0,0,0,0
		c-1.9,4.6,3,9,11.8,9c8.8,0,18-4.9,20.4-10.9C148.6,60.2,146.5,56.5,142,54.8z M134.4,53.6c-0.4,0.2-0.9,0.3-1.3,0.3
		c-0.2,0-0.5,0-0.7-0.1c-2.5-0.8-2.4-6.1,0.2-12.6c2.9-7,7.8-12.7,11-12.7c3.1,0,3.3,5.7,0.4,12.7C141.6,47.3,137.5,52.4,134.4,53.6
		z"/>
	<path fill="#FFFFFF" d="M215.1,36.3c0.7,0,3.6-2.8,5.2-6.7c1.6-3.9-1.1-5.5-2.2-5.5c-3.7,0-8.2,4.4-10.2,6.6
		c0.3-0.9,0.5-1.9,0.6-2.2c0.2-1.5,1.1-4.4-1.1-4.4s-5.5,1.6-5.5,1.6c-3.2,1.2-6.6,4.2-7,5.1c-0.4,0.9,1,1,2.2,1.2
		c1.5,0.3,0.5,3.2,0.5,3.2s-6.8,16.4-8.1,19.5l-0.4,1c-0.6,1.4-1.1,3.8,1.1,3.8h6c0,0,1.8,0,3.5-4.1c1.7-4.1,6.8-16.5,6.8-16.5
		s2.4-6.3,4.7-6.3c0,0,2-0.3,2.3,1.6C213.9,36.1,214.4,36.3,215.1,36.3z"/>
	<path fill="#FFFFFF" d="M83.3,19.8c3.1,0,6.7-2.7,8.1-6c1.4-3.3,0-6-3.1-6c-3.1,0-6.7,2.7-8.1,6C78.9,17.1,80.2,19.8,83.3,19.8z"/>
	<path fill="#FFFFFF" d="M77.2,52.2c-1.5-0.3-0.1-3.8-0.1-3.8s6.8-16.3,8.1-19.5c0.6-1.4,1.5-4.8-0.7-4.8s-6,1.8-6,1.8
		c-3.2,1.2-6.9,4-7.3,4.9c-0.4,0.9,1,1,2.2,1.2c1.5,0.3,0.5,3.2,0.5,3.2s-7.2,17.3-8.5,20.5l0,0c-0.6,1.4-1.5,4.8,0.7,4.8
		c2.2,0,6.3-1.3,6.3-1.3c3.2-1.2,5.9-2.8,7-5.4C79.9,52.4,78.4,52.4,77.2,52.2z"/>
	<path fill="#FFFFFF" d="M117,53.8c0.6-1.4-0.9-1.4-2.1-1.6c-1.5-0.3-0.1-3.8-0.1-3.8l5.2-12.6c0,0,5.3-11.7-4.9-11.7
		c-6.2,0-11,4.9-13.8,8.8c0,0,1-3.7,1.2-4.4c0.2-1.5,1.1-4.4-1.1-4.4s-5.5,1.6-5.5,1.6c-3.2,1.2-6.6,4.2-7,5.1c-0.4,0.9,1,1,2.2,1.2
		c1.5,0.3,0.5,3.2,0.5,3.2s-6.8,16.4-8.1,19.5l-0.4,1c-0.6,1.4-1.1,3.8,1.1,3.8h6c0,0,1.8,0,3.5-4.1c1.7-4.1,6.8-16.5,6.8-16.5
		s3.7-8.5,8.1-8.5c4.4,0,2.8,4.8,2.8,4.8s-7.2,17.3-8.5,20.5l0,0c-0.6,1.4-1.5,4.8,0.7,4.8s6.3-1.3,6.3-1.3
		C113.2,58,115.9,56.4,117,53.8z"/>
	<path fill="#FFFFFF" d="M243.5,52.2c-1.5-0.3-0.1-3.8-0.1-3.8s6.8-16.3,8.1-19.5c0.6-1.4,1.5-4.8-0.7-4.8s-2.7,0.6-5.6,2.7
		c-0.7,0.6-1.5,1.3-2.3,2c-1.1-2.9-3.3-4.7-6.6-4.7c-7.1,0-16.3,8.3-20.5,18.4C211.5,52.7,213.9,61,221,61c3.9,0,8.5-2.5,12.5-6.5
		c-0.6,1.7-1.8,6,0.3,6c2.2,0,4.4-0.8,6.1-1.5c1.7-0.7,4.7-2.5,5.8-5.2C246.2,52.4,244.7,52.4,243.5,52.2z M236.7,42.6
		c-3,7.3-8,13.3-11.2,13.3c-3.1,0-3.2-5.9-0.2-13.3c3-7.3,8-13.3,11.2-13.3C239.6,29.3,239.7,35.2,236.7,42.6z"/>
	<path fill="#FFFFFF" d="M260.8,46.1c0,0,3.4,0,12.3-3.1c9-3.2,10.1-8.2,10.3-11.5c0.3-3.3-3.9-7.4-9.1-7.4
		c-8.7,0-19.1,8.3-23.3,18.4S250.4,61,259.1,61c0.9,0,1.8,0,2.7-0.1l0,0c11.8,0,16-7.2,16.5-7.7c0.3-0.3,0.7-1.3,0.6-2.1
		c-0.1-0.4-0.4-0.8-1-1.1c-1.7-0.7-3,1-3,1s-4.2,4.7-10.3,4.7c-6,0-5.9-6.1-5.6-8C259.3,46.3,260.8,46.1,260.8,46.1z M266,33.4
		c3.5-3.6,7.2-4.8,8.9-3.6c2.2,1.7,0.7,4.7-2.9,8.2c-3.5,3.6-10.7,3.7-10.7,3.7S262.5,36.9,266,33.4z"/>
	<path fill="#FFFFFF" d="M71.9,9.3c0-7-6.4-9.3-13.2-9.3C31.2,0.9,1.2,23.7,0,47c0,11.3,8.5,17.3,24.5,17.3
		c11.2,0,39.5-10.6,39.5-28.3c0-9.7-9.3-10-9.3-10S70,22.9,71.9,9.3z M37.7,29.3c0,0,5.4,2.2,5.4,11.3c0,12.7-12.6,21.5-17.8,21.5
		c-6.9,0-6.7-7.8-6.7-10.6C18.7,33.6,34.5,5,46.6,5c0,0,5.4,0.4,5.4,7.2C52,21.3,40.3,29.3,37.7,29.3z"/>
</g>
</svg>
