<?xml version="1.0" encoding="utf-8"?>
<!-- Generator: Adobe Illustrator 25.4.1, SVG Export Plug-In . SVG Version: 6.00 Build 0)  -->
<svg version="1.0" id="레이어_1" xmlns="http://www.w3.org/2000/svg" xmlns:xlink="http://www.w3.org/1999/xlink" x="0px"
	 y="0px" viewBox="0 0 226.8 202.8" enable-background="new 0 0 226.8 202.8" xml:space="preserve">
<path fill="#FFFFFF" d="M226.8,29.4C226.8,7.4,206.4,0,185,0C98.4,2.7,3.7,74.9,0,148.3c0,35.6,26.9,54.5,77.4,54.5
	c35.5,0,124.7-33.4,124.7-89.2c0-30.6-29.3-31.5-29.3-31.5S220.9,72.3,226.8,29.4z M119,92.6c0,0,17.1,7,17.1,35.6
	c0,40-39.9,67.9-56.2,67.9c-21.6,0-21-24.5-21-33.5c0-56.7,49.9-146.9,88-146.9c0,0,17.2,1.4,17.2,22.6
	C164.2,67.2,127.2,92.6,119,92.6z"/>
</svg>
