<?xml version="1.0" encoding="utf-8"?>
<!-- Generator: Adobe Illustrator 25.4.1, SVG Export Plug-In . SVG Version: 6.00 Build 0)  -->
<svg version="1.0" id="레이어_1" xmlns="http://www.w3.org/2000/svg" xmlns:xlink="http://www.w3.org/1999/xlink" x="0px"
	 y="0px" viewBox="0 0 283.5 67" enable-background="new 0 0 283.5 67" xml:space="preserve">
<g>
	<g>
		<path fill="#FFFFFF" d="M144.6,8.2c-3.1,0-5.6,2.5-5.6,5.6v23.3c0,3.1,2.5,5.6,5.6,5.6s5.6-2.5,5.6-5.6V13.8
			C150.2,10.7,147.7,8.2,144.6,8.2z"/>
		<path fill="#FFFFFF" d="M277.8,8.2c-3.1,0-5.6,2.5-5.6,5.6V59c0,3.1,2.5,5.6,5.6,5.6s5.6-2.5,5.6-5.6V13.8
			C283.5,10.7,280.9,8.2,277.8,8.2z"/>
		<path fill="#FFFFFF" d="M263.8,11.7c-3.1,0-5.6,2.5-5.6,5.6V36h-10.8c-1.5,0-2.7,1.2-2.7,2.7c0,1.5,1.2,2.7,2.7,2.7h10.8v11.7
			c0,3.1,2.5,5.6,5.6,5.6s5.6-2.5,5.6-5.6V17.3C269.4,14.2,266.9,11.7,263.8,11.7z"/>
		<path fill="#FFFFFF" d="M130.5,31V16.3c0-3.1-2.5-5.6-5.6-5.6c-3.1,0-5.6,2.5-5.6,5.6v4h-15.4v-4c0-3.1-2.5-5.6-5.6-5.6
			s-5.6,2.5-5.6,5.6V31c0,5.1,8.5,9.3,19,9.3C122,40.3,130.5,36.2,130.5,31z M103.8,31V25h15.4V31c0,2.1-3.5,3.8-7.7,3.8
			C107.2,34.8,103.8,33.1,103.8,31z"/>
		<path fill="#FFFFFF" d="M124.9,40.6c-13.9,0-25.1,5.6-25.1,12.4s8.2,12.4,25.1,12.4S150,59.9,150,53.1S138.7,40.6,124.9,40.6z
			 M124.9,60.8c-6.2,0-11.2-3.4-11.2-7.7s5-7.7,11.2-7.7c6.2,0,11.2,3.4,11.2,7.7S131.1,60.8,124.9,60.8z"/>
		<path fill="#FFFFFF" d="M163.7,21.7h36c1.3,0,2.1,1.4,1.4,2.5L193,38.3c-1.5,2.5-0.9,5.9,1.5,7.6c2.7,2,6.5,1.1,8.2-1.8l11.6-20
			c1.2-2.1,1.1-4.9-0.6-6.7c-1.1-1.3-2.6-1.8-4-1.9v0h-45.8c-1.5,0-2.9,1-3.2,2.5C160.3,20,161.8,21.7,163.7,21.7z"/>
		<path fill="#FFFFFF" d="M214.5,45.6c-8,4.4-15.2,5.2-27.4,5.2c-12.2,0-19.4-0.8-27.4-5.2c-1.4-0.8-3.1-0.3-3.9,1.1
			c-0.8,1.4-0.3,3.1,1.1,3.9c9.1,5,17.3,5.9,30.2,5.9c12.9,0,21.1-0.9,30.2-5.9c1.4-0.8,1.9-2.5,1.1-3.9
			C217.6,45.4,215.9,44.9,214.5,45.6z"/>
		<path fill="#FFFFFF" d="M253.3,49.5c-1-0.3-1.9,0.2-2.5,1c-0.9,1.2-3.7,2.1-7,2.1c-4.1,0-7.3-1.3-7.3-3V34.3h11.8
			c2.7,0,4.9-1.8,5.5-4.3h0.2v-8.9c0-3.1-2.5-5.6-5.6-5.6h-20.8v0c-1.3,0.2-2.3,1.3-2.3,2.7s1,2.5,2.3,2.7v0h15.2c0,0.1,0,0.1,0,0.2
			v7.7h-15.2v0c-1.3,0.2-2.3,1.3-2.3,2.7v19.3c0,3.4,6.6,6.1,14.8,6.1c8.2,0,14.8-2.8,14.8-6.1C254.6,50.2,254,49.7,253.3,49.5z"/>
	</g>
	<path fill="#FFFFFF" d="M78.7,9.7c0-7.3-7-9.7-14.5-9.7C34.1,0.9,1.3,24.7,0,49c0,11.8,9.3,18,26.8,18c12.3,0,43.3-11,43.3-29.5
		c0-10.1-10.2-10.4-10.2-10.4S76.6,23.9,78.7,9.7z M41.3,30.6c0,0,5.9,2.3,5.9,11.8c0,13.2-13.8,22.4-19.5,22.4
		c-7.5,0-7.3-8.1-7.3-11.1C20.5,35,37.8,5.2,51,5.2c0,0,6,0.5,6,7.5C56.9,22.2,44.1,30.6,41.3,30.6z"/>
</g>
</svg>
