<svg width="118" height="32" viewBox="0 0 118 32" fill="none" xmlns="http://www.w3.org/2000/svg">
<g clip-path="url(#clip0_631_394)">
<path d="M15.1383 3.525L0.0437263 6.339C0.0342725 6.34059 0.0257774 6.34548 0.0198837 6.35271C0.01399 6.35995 0.0111143 6.36901 0.0118249 6.37814V10.2925C0.0117351 10.298 0.0129149 10.3034 0.0152737 10.3084C0.0176325 10.3133 0.021118 10.3177 0.0254741 10.3213C0.0298302 10.3248 0.0349524 10.3274 0.0404722 10.3288C0.045992 10.3302 0.0517691 10.3305 0.0573963 10.3295L5.31829 9.35307C5.32392 9.3521 5.32971 9.35234 5.33523 9.35376C5.34075 9.35518 5.34587 9.35776 5.35022 9.36129C5.35458 9.36482 5.35806 9.36923 5.36042 9.3742C5.36278 9.37917 5.36396 9.38458 5.36387 9.39004V31.8194C5.36386 31.8244 5.36493 31.8294 5.36702 31.8341C5.3691 31.8387 5.37216 31.8429 5.376 31.8463C5.37984 31.8498 5.38439 31.8525 5.38936 31.8542C5.39432 31.8559 5.3996 31.8567 5.40488 31.8564H9.91617C9.92144 31.8567 9.92673 31.8559 9.93169 31.8542C9.93666 31.8525 9.9412 31.8498 9.94505 31.8463C9.94889 31.8429 9.95195 31.8387 9.95404 31.8341C9.95612 31.8294 9.9572 31.8244 9.95719 31.8194V8.51365C9.95704 8.50488 9.96017 8.49634 9.96601 8.48957C9.97185 8.4828 9.98003 8.47823 9.98908 8.47668L15.1634 7.51114C15.1729 7.51007 15.1816 7.50571 15.1879 7.49888C15.1942 7.49206 15.1976 7.48327 15.1976 7.47417V3.5598C15.1983 3.55291 15.1969 3.54599 15.1937 3.53979C15.1905 3.5336 15.1855 3.5284 15.1793 3.52478C15.1732 3.52115 15.166 3.51925 15.1588 3.51929C15.1515 3.51933 15.1445 3.52131 15.1383 3.525Z" fill="#E60012"/>
<path d="M31.3874 1.42676L26.8693 1.99C26.8594 1.99109 26.8504 1.99576 26.844 2.00305C26.8377 2.01034 26.8345 2.01967 26.8351 2.02914V14.8596C26.8351 14.8647 26.8341 14.8698 26.832 14.8746C26.83 14.8793 26.8269 14.8836 26.8231 14.8873C26.8193 14.8909 26.8148 14.8938 26.8098 14.8958C26.8048 14.8977 26.7995 14.8987 26.7941 14.8987H22.1438C22.1334 14.8982 22.1235 14.8938 22.1163 14.8865C22.1091 14.8792 22.1051 14.8696 22.1051 14.8596V2.47712C22.1048 2.47177 22.1034 2.46654 22.1009 2.46175C22.0985 2.45695 22.095 2.45269 22.0907 2.44922C22.0864 2.44576 22.0815 2.44316 22.0761 2.4416C22.0707 2.44004 22.0651 2.43955 22.0595 2.44015L17.5437 3.15344C17.5345 3.15544 17.5262 3.16044 17.5204 3.16757C17.5146 3.17471 17.5116 3.18354 17.5118 3.19258V31.8197C17.5115 31.8246 17.5122 31.8296 17.5141 31.8342C17.5159 31.8388 17.5187 31.843 17.5224 31.8465C17.5261 31.85 17.5305 31.8528 17.5353 31.8545C17.5402 31.8562 17.5454 31.857 17.5505 31.8567H22.0527C22.058 31.857 22.0633 31.8562 22.0682 31.8545C22.0732 31.8528 22.0777 31.8501 22.0816 31.8466C22.0854 31.8432 22.0885 31.839 22.0906 31.8344C22.0927 31.8297 22.0937 31.8247 22.0937 31.8197V18.9218C22.0937 18.9118 22.0977 18.9022 22.1049 18.8949C22.1121 18.8876 22.122 18.8832 22.1325 18.8827H26.7941C26.805 18.8827 26.8154 18.8868 26.8231 18.8942C26.8308 18.9015 26.8351 18.9114 26.8351 18.9218V31.8197C26.8348 31.8246 26.8356 31.8296 26.8374 31.8342C26.8392 31.8388 26.8421 31.843 26.8457 31.8465C26.8494 31.85 26.8538 31.8528 26.8587 31.8545C26.8635 31.8562 26.8687 31.857 26.8739 31.8567H31.392C31.3973 31.857 31.4026 31.8562 31.4075 31.8545C31.4125 31.8528 31.417 31.8501 31.4209 31.8466C31.4247 31.8432 31.4278 31.839 31.4299 31.8344C31.4319 31.8297 31.433 31.8247 31.433 31.8197V1.46373C31.4327 1.45838 31.4313 1.45316 31.4288 1.44836C31.4264 1.44356 31.4229 1.4393 31.4186 1.43583C31.4143 1.43237 31.4094 1.42978 31.404 1.42821C31.3986 1.42665 31.393 1.42616 31.3874 1.42676Z" fill="#E60012"/>
<path d="M46.7677 27.7964H38.914C38.9031 27.7964 38.8927 27.7923 38.885 27.7849C38.8773 27.7776 38.8729 27.7676 38.8729 27.7573V18.9216C38.8729 18.9113 38.8773 18.9013 38.885 18.894C38.8927 18.8866 38.9031 18.8825 38.914 18.8825H45.5214C45.5267 18.8828 45.532 18.8821 45.5369 18.8803C45.5419 18.8786 45.5465 18.8759 45.5503 18.8725C45.5541 18.869 45.5572 18.8648 45.5593 18.8602C45.5614 18.8556 45.5624 18.8506 45.5624 18.8455V14.9312C45.5619 14.9212 45.5573 14.9118 45.5496 14.9049C45.542 14.898 45.5319 14.8942 45.5214 14.8942H38.914C38.9086 14.8942 38.9032 14.8932 38.8983 14.8912C38.8933 14.8892 38.8888 14.8864 38.885 14.8827C38.8812 14.8791 38.8781 14.8748 38.8761 14.87C38.874 14.8653 38.8729 14.8602 38.8729 14.855V4.94733C38.8729 4.93732 38.8769 4.92768 38.8841 4.9204C38.8913 4.91312 38.9012 4.90875 38.9117 4.90819L46.7381 4.35583C46.7482 4.35475 46.7575 4.35016 46.7642 4.34293C46.7709 4.33571 46.7746 4.32636 46.7745 4.31669V0.367518C46.774 0.356941 46.7692 0.346982 46.7611 0.339698C46.753 0.332413 46.7424 0.328355 46.7313 0.328369L34.3958 1.19823C34.386 1.19879 34.3767 1.20293 34.3699 1.2098C34.3631 1.21668 34.3594 1.22576 34.3594 1.2352V31.8195C34.3594 31.8246 34.3604 31.8295 34.3625 31.8342C34.3646 31.8388 34.3677 31.843 34.3715 31.8464C34.3754 31.8499 34.3799 31.8526 34.3849 31.8543C34.3898 31.856 34.3951 31.8568 34.4004 31.8565H46.7677C46.773 31.8568 46.7783 31.856 46.7832 31.8543C46.7882 31.8526 46.7927 31.8499 46.7966 31.8464C46.8004 31.843 46.8035 31.8388 46.8056 31.8342C46.8077 31.8295 46.8087 31.8246 46.8087 31.8195V27.8334C46.8087 27.8283 46.8077 27.8233 46.8056 27.8187C46.8035 27.8141 46.8004 27.8099 46.7966 27.8064C46.7927 27.803 46.7882 27.8003 46.7832 27.7986C46.7783 27.7968 46.773 27.7961 46.7677 27.7964Z" fill="#E60012"/>
<path d="M61.2857 17.4165C62.1875 16.7939 62.9543 16.0104 63.5437 15.1092C64.3753 13.737 64.9107 12.367 65.0611 8.95932C65.2115 5.55164 64.528 3.74015 63.2384 2.28749C61.9488 0.834819 59.7387 0.1846 57.3258 0.0323739C55.0064 -0.0981052 49.791 0.154157 49.3126 0.178079C49.3027 0.179174 49.2937 0.183847 49.2873 0.191133C49.2809 0.198418 49.2778 0.207757 49.2784 0.217221L49.3126 31.8149C49.3126 31.82 49.3136 31.8249 49.3157 31.8296C49.3178 31.8342 49.3209 31.8384 49.3247 31.8419C49.3286 31.8453 49.3331 31.848 49.3381 31.8497C49.343 31.8514 49.3483 31.8522 49.3536 31.8519H53.9424C53.9526 31.8519 53.9625 31.848 53.9697 31.8411C53.977 31.8341 53.9811 31.8247 53.9811 31.8149V18.7887C53.9805 18.7829 53.9815 18.777 53.9838 18.7715C53.9861 18.7661 53.9898 18.7613 53.9945 18.7574C53.9991 18.7536 54.0047 18.7509 54.0107 18.7495C54.0167 18.7482 54.0229 18.7482 54.0289 18.7496C54.5066 18.885 55.0076 18.9286 55.5031 18.8779C56.0799 18.8369 56.6513 18.7437 57.2096 18.5996C57.2147 18.5983 57.22 18.598 57.2252 18.5987C57.2304 18.5995 57.2354 18.6012 57.2399 18.6039C57.2444 18.6065 57.2483 18.61 57.2513 18.6141C57.2543 18.6182 57.2564 18.6229 57.2575 18.6278L60.3151 31.8236C60.3172 31.8318 60.3222 31.8391 60.3293 31.8443C60.3363 31.8494 60.345 31.8521 60.3539 31.8519H65.1203C65.1263 31.852 65.1322 31.8509 65.1376 31.8485C65.143 31.8461 65.1478 31.8426 65.1515 31.8382C65.1553 31.8338 65.1579 31.8286 65.1592 31.823C65.1605 31.8175 65.1605 31.8117 65.1591 31.8062L61.2721 17.4535C61.2705 17.4467 61.2709 17.4397 61.2733 17.4332C61.2758 17.4266 61.2801 17.4209 61.2857 17.4165ZM58.9185 13.8827C57.3236 15.0418 57.0205 14.8939 55.8859 15.0418C55.2295 15.1282 54.5684 15.1769 53.9059 15.1875V4.13376C53.9056 4.12919 53.9062 4.12461 53.9078 4.12028C53.9093 4.11594 53.9118 4.11194 53.9149 4.10851C53.9181 4.10507 53.922 4.10227 53.9263 4.10026C53.9306 4.09825 53.9353 4.09708 53.9401 4.0968C54.2613 4.07288 56.6947 3.90325 57.4785 4.16856C58.3101 4.45996 59.8275 4.97318 60.2126 7.21307C60.5977 9.45296 60.5042 12.7215 58.9185 13.8827Z" fill="#E60012"/>
<path d="M80.9582 0.702467C80.9495 0.701464 80.9407 0.703282 80.9333 0.707624C80.9259 0.711965 80.9202 0.718579 80.9172 0.726392L76.4172 12.5521C76.4144 12.5598 76.4092 12.5665 76.4023 12.5712C76.3953 12.5759 76.387 12.5784 76.3785 12.5784C76.37 12.5784 76.3617 12.5759 76.3548 12.5712C76.3478 12.5665 76.3426 12.5598 76.3398 12.5521L72.2682 0.352351C72.2658 0.344883 72.261 0.338332 72.2544 0.333643C72.2479 0.328955 72.24 0.326371 72.2318 0.326257L67.8663 0.187076C67.861 0.186779 67.8557 0.187515 67.8508 0.189239C67.8458 0.190964 67.8413 0.193641 67.8374 0.197104C67.8336 0.200566 67.8305 0.204748 67.8284 0.209381C67.8263 0.214014 67.8253 0.219004 67.8253 0.224048V31.8196C67.8249 31.8245 67.8257 31.8294 67.8275 31.8341C67.8294 31.8387 67.8322 31.8429 67.8359 31.8464C67.8395 31.8499 67.8439 31.8526 67.8488 31.8544C67.8537 31.8561 67.8588 31.8568 67.864 31.8565H72.3707C72.376 31.8568 72.3813 31.8561 72.3863 31.8544C72.3912 31.8526 72.3958 31.85 72.3996 31.8465C72.4035 31.843 72.4065 31.8389 72.4086 31.8342C72.4107 31.8296 72.4118 31.8246 72.4118 31.8196V13.5916C72.4102 13.5818 72.4129 13.5718 72.4191 13.5639C72.4253 13.5559 72.4345 13.5507 72.4448 13.5492C72.4551 13.5478 72.4655 13.5503 72.4738 13.5562C72.4822 13.5621 72.4877 13.5709 72.4892 13.5808L75.8203 23.1275C75.8231 23.1351 75.8284 23.1417 75.8353 23.1464C75.8422 23.1511 75.8505 23.1536 75.859 23.1536H77.0894C77.0979 23.1536 77.1062 23.1511 77.1131 23.1464C77.12 23.1417 77.1253 23.1351 77.1281 23.1275L80.4637 13.9939C80.4652 13.9841 80.4708 13.9753 80.4791 13.9694C80.4874 13.9635 80.4979 13.961 80.5082 13.9624C80.5184 13.9638 80.5277 13.9691 80.5339 13.9771C80.5401 13.985 80.5427 13.995 80.5412 14.0048V31.8261C80.5412 31.8311 80.5423 31.8361 80.5444 31.8407C80.5464 31.8454 80.5495 31.8496 80.5533 31.853C80.5572 31.8565 80.5617 31.8592 80.5667 31.8609C80.5717 31.8626 80.5769 31.8633 80.5822 31.863H85.1391C85.1443 31.8634 85.1494 31.8626 85.1543 31.8609C85.1591 31.8591 85.1635 31.8564 85.1672 31.8529C85.1709 31.8494 85.1737 31.8452 85.1756 31.8406C85.1774 31.836 85.1781 31.831 85.1778 31.8261V0.987353L85.0844 1.05259L80.9582 0.702467Z" fill="#E60012"/>
<path d="M95.468 1.77246C93.4592 1.77304 91.5329 2.5351 90.1126 3.89106C88.6924 5.24702 87.8945 7.08585 87.8945 9.00318V24.4845C87.8945 28.3532 90.9522 31.75 94.9987 31.9827C96.0305 32.0436 97.0644 31.9022 98.0368 31.5672C99.0092 31.2322 99.8994 30.7108 100.653 30.035C101.406 29.3593 102.006 28.5435 102.417 27.6379C102.827 26.7323 103.039 25.7561 103.039 24.7694V9.00318C103.039 7.08623 102.242 5.24772 100.822 3.89182C99.4022 2.53593 97.4765 1.77361 95.468 1.77246ZM98.3161 25.1478C98.3153 25.5507 98.2209 25.9484 98.0397 26.3122C97.8584 26.6761 97.5948 26.997 97.2678 27.2518C96.9409 27.5067 96.5588 27.6891 96.149 27.7859C95.7393 27.8827 95.3122 27.8915 94.8984 27.8117C93.5496 27.5617 92.62 26.3569 92.62 25.0456V8.69437C92.62 7.38958 93.545 6.18266 94.8984 5.93257C95.3117 5.85205 95.7386 5.86015 96.1482 5.95629C96.5578 6.05243 96.9399 6.2342 97.2669 6.48848C97.5939 6.74275 97.8577 7.06318 98.0391 7.42661C98.2205 7.79005 98.3151 8.18741 98.3161 8.58999V25.1478Z" fill="#E60012"/>
<path d="M115.633 19.3674C114.542 18.0496 112.594 16.1316 111.388 14.7267C110.381 13.5416 109.454 12.3216 109.454 10.3405C109.454 8.56595 110.076 7.90486 111.398 7.90486C113.56 7.90486 113.742 10.1752 113.712 12.4977C113.712 12.5074 113.716 12.5167 113.723 12.524C113.73 12.5312 113.739 12.5358 113.749 12.5369L117.463 12.7543C117.468 12.7549 117.473 12.7546 117.478 12.7532C117.482 12.7519 117.487 12.7496 117.491 12.7465C117.495 12.7435 117.498 12.7397 117.5 12.7354C117.502 12.7312 117.503 12.7265 117.504 12.7217C117.611 10.2165 118.324 5.11043 111.363 4.64505C107.226 4.3667 105.212 6.19993 105.212 10.6536C105.212 12.0454 105.667 14.4571 106.522 15.5161C108.502 18.0192 109.447 18.9782 111.502 20.968C112.512 21.8378 113.831 23.458 113.831 24.9889C113.831 26.9766 113.505 28.7054 111.846 28.7054C109.891 28.7054 109.194 27.6659 109.272 25.1238V23.6298C109.272 23.6194 109.267 23.6094 109.26 23.6021C109.252 23.5947 109.242 23.5906 109.231 23.5906H105.171C105.16 23.5912 105.15 23.5955 105.143 23.6028C105.136 23.6101 105.132 23.6198 105.132 23.6298V25.5C105.132 30.1668 106.809 31.9739 111.525 31.9739C115.376 31.9739 118 30.2777 118 25.339C118 23.0839 116.975 21.0006 115.633 19.3674Z" fill="#E60012"/>
</g>
<defs>
<clipPath id="clip0_631_394">
<rect width="118" height="32" fill="white"/>
</clipPath>
</defs>
</svg>
