<svg width="149" height="150" viewBox="0 0 149 150" fill="none" xmlns="http://www.w3.org/2000/svg">
<path d="M138 63.8C124.8 63.8 110.4 73.4 75.6 74.4C100 49.8 117.8 47.2 127.4 37.6C129.6 35.4 130.6 32.8 130.6 30.6C130.6 24.6 124.8 19 119.2 19C116.6 19 113.6 20 111.4 22.2C102.2 31.6 98.6 48.4 75 73.8C74.8 39 85.6 24.2 85.6 11.2C85.6 3.99998 80.2 0.599976 74.4 0.599976C69 0.599976 63.2 3.99998 63.2 11.4C63.2 24.2 72.8 39 73.8 73.8C50.2 48.8 47 31.6 37.6 22.2C35.2 20 32.6 18.8 30 18.8C23.6 18.8 18.2 24.6 18.2 30.6C18.2 32.8 19.2 35.4 21.4 37.6C31 47.6 48.8 49.8 73.2 74.4C38.6 73.4 24.2 63.8 11.2 63.8C3.8 63.8 0 69.6 0 75.4C0 80.8 3.4 86.2 10.6 86.2C24.2 86.2 38.6 75.4 73.4 75.4C47.8 99.2 31 102.8 21.6 112C19.4 114.2 18.2 117.2 18.2 119.8C18.2 125.8 24 131.2 30 131.2C32.2 131.2 34.8 130.2 37 128C46.6 118.4 49.2 100.6 73.8 76.2C72.8 111 63.2 125.4 63.2 138.6C63.2 146 69 149.4 74.4 149.4C80.2 149.4 85.6 146 85.6 138.8C85.6 125.4 74.8 111 75 76.2C99.6 100.6 102.2 118.4 111.8 128C114 130.2 116.6 131.2 118.8 131.2C124.8 131.2 130.4 125.4 130.4 119.8C130.4 117.2 129.4 114.2 127.2 112C117.8 102.8 101 99.2 75.4 75.4C110.4 75.4 124.8 86.2 138.2 86.2C145.4 86.2 148.8 80.8 148.8 75C148.8 69.6 145.4 63.8 138 63.8Z" fill="#F1DF12"/>
</svg>
